<svg xmlns:x="http://ns.adobe.com/Extensibility/1.0/" xmlns:i="http://ns.adobe.com/AdobeIllustrator/10.0/" xmlns:graph="http://ns.adobe.com/Graphs/1.0/" xmlns="http://www.w3.org/2000/svg" xmlns:xlink="http://www.w3.org/1999/xlink" version="1.1" id="Layer_1" x="0px" y="0px" width="184.667px" height="166.901px" viewBox="0 0 184.667 166.901" enable-background="new 0 0 184.667 166.901" xml:space="preserve">
	<g>
		<g>
			<path fill="#008BBF" d="M9.202,151.956c0-1.43,0.247-2.782,0.741-4.057c0.494-1.273,1.189-2.379,2.086-3.314     c0.897-0.937,1.956-1.678,3.179-2.223c1.222-0.546,2.561-0.819,4.017-0.819c1.846,0,3.464,0.416,4.855,1.248     c1.391,0.832,2.45,1.989,3.178,3.471l-1.911,0.624c-0.599-1.117-1.457-1.995-2.574-2.633c-1.118-0.637-2.34-0.955-3.666-0.955     c-1.118,0-2.158,0.221-3.12,0.663s-1.8,1.053-2.515,1.833c-0.716,0.78-1.274,1.696-1.677,2.749     c-0.403,1.054-0.604,2.191-0.604,3.413c0,1.223,0.214,2.373,0.644,3.451c0.429,1.079,1,2.016,1.716,2.808     c0.715,0.794,1.554,1.424,2.516,1.892c0.961,0.469,1.989,0.702,3.081,0.702c0.702,0,1.397-0.104,2.086-0.312     c0.688-0.208,1.326-0.481,1.911-0.819s1.092-0.734,1.521-1.189c0.429-0.454,0.722-0.93,0.877-1.424l1.911,0.546     c-0.26,0.702-0.657,1.359-1.189,1.97c-0.533,0.611-1.164,1.138-1.892,1.58c-0.729,0.442-1.528,0.786-2.398,1.033     c-0.872,0.247-1.774,0.37-2.71,0.37c-1.43,0-2.756-0.279-3.978-0.838c-1.223-0.559-2.282-1.326-3.179-2.301     c-0.897-0.976-1.605-2.1-2.125-3.374C9.461,154.777,9.202,153.412,9.202,151.956z"/>
			<path fill="#008BBF" d="M31.977,133.703h1.989v24.454c0,0.754,0.215,1.352,0.644,1.794c0.429,0.442,1.02,0.663,1.774,0.663     c0.286,0,0.63-0.033,1.034-0.098c0.403-0.064,0.773-0.162,1.111-0.293l0.39,1.561c-0.442,0.182-0.988,0.331-1.638,0.448     s-1.209,0.176-1.677,0.176c-1.092,0-1.97-0.332-2.633-0.995c-0.663-0.663-0.994-1.553-0.994-2.671V133.703z"/>
			<path fill="#008BBF" d="M50.229,162.563c-1.43,0-2.756-0.279-3.978-0.838c-1.223-0.559-2.282-1.326-3.179-2.301     c-0.897-0.976-1.599-2.1-2.106-3.374c-0.507-1.273-0.76-2.639-0.76-4.095c0-1.43,0.253-2.775,0.76-4.037     c0.507-1.261,1.202-2.365,2.086-3.314c0.884-0.949,1.937-1.697,3.159-2.243c1.222-0.546,2.535-0.819,3.939-0.819     c1.43,0,2.75,0.28,3.958,0.838c1.209,0.559,2.255,1.313,3.14,2.262c0.883,0.949,1.58,2.054,2.086,3.314     c0.507,1.262,0.76,2.594,0.76,3.998c0,0.13-0.006,0.292-0.02,0.487s-0.02,0.318-0.02,0.37H42.234     c0.078,1.17,0.351,2.256,0.819,3.257c0.468,1.001,1.059,1.866,1.774,2.594c0.715,0.728,1.541,1.3,2.477,1.716     s1.937,0.624,3.003,0.624c0.702,0,1.397-0.098,2.087-0.293c0.688-0.194,1.326-0.461,1.911-0.799s1.105-0.747,1.56-1.229     c0.455-0.481,0.812-1.008,1.073-1.58l1.716,0.469c-0.312,0.728-0.748,1.397-1.307,2.008c-0.559,0.611-1.209,1.138-1.95,1.58     c-0.741,0.442-1.554,0.786-2.438,1.033C52.075,162.44,51.165,162.563,50.229,162.563z M58.185,151.253     c-0.078-1.195-0.345-2.288-0.8-3.276c-0.455-0.987-1.04-1.839-1.755-2.555c-0.715-0.714-1.541-1.273-2.477-1.677     c-0.936-0.402-1.937-0.604-3.003-0.604c-1.066,0-2.067,0.202-3.003,0.604c-0.936,0.403-1.762,0.963-2.477,1.677     c-0.715,0.716-1.287,1.574-1.716,2.574c-0.429,1.001-0.683,2.087-0.761,3.257H58.185z"/>
			<path fill="#008BBF" d="M69.378,162.563c-0.936,0-1.813-0.162-2.633-0.487c-0.819-0.324-1.534-0.767-2.145-1.326     c-0.611-0.559-1.086-1.222-1.423-1.988c-0.338-0.767-0.507-1.593-0.507-2.477s0.208-1.69,0.624-2.418     c0.416-0.728,1-1.358,1.755-1.892c0.754-0.533,1.644-0.949,2.671-1.248c1.027-0.299,2.165-0.448,3.413-0.448     c1.092,0,2.197,0.097,3.315,0.292c1.118,0.195,2.119,0.462,3.003,0.8v-1.989c0-1.924-0.546-3.451-1.638-4.582     c-1.092-1.132-2.574-1.697-4.446-1.697c-1.014,0-2.074,0.209-3.178,0.624c-1.105,0.416-2.217,1.015-3.335,1.794l-0.78-1.325     c2.626-1.769,5.096-2.652,7.41-2.652c2.443,0,4.374,0.708,5.792,2.125c1.417,1.418,2.125,3.374,2.125,5.87v9.905     c0,0.65,0.273,0.976,0.819,0.976v1.755c-0.13,0.025-0.253,0.039-0.371,0.039c-0.117,0-0.228,0-0.332,0     c-0.468,0-0.897-0.162-1.287-0.487c-0.39-0.325-0.585-0.747-0.585-1.268v-1.677c-0.936,1.222-2.125,2.158-3.568,2.808     S71.067,162.563,69.378,162.563z M69.768,161.003c1.508,0,2.899-0.279,4.173-0.839c1.273-0.559,2.223-1.319,2.847-2.281     c0.442-0.52,0.663-1.04,0.663-1.56v-3.589c-1.976-0.728-4.004-1.092-6.084-1.092c-2.028,0-3.666,0.416-4.914,1.248     c-1.248,0.833-1.872,1.925-1.872,3.276c0,0.676,0.13,1.313,0.39,1.911c0.26,0.598,0.624,1.111,1.092,1.54     c0.468,0.429,1.02,0.768,1.657,1.015C68.357,160.88,69.04,161.003,69.768,161.003z"/>
			<path fill="#008BBF" d="M101.942,162.173h-1.95v-11.31c0-2.626-0.37-4.537-1.111-5.733c-0.741-1.195-1.931-1.794-3.568-1.794     c-0.858,0-1.71,0.156-2.555,0.468c-0.845,0.312-1.625,0.755-2.34,1.326c-0.716,0.572-1.346,1.242-1.892,2.009     s-0.95,1.593-1.209,2.477v12.558h-1.95v-20.28h1.794v4.835c0.416-0.779,0.936-1.487,1.56-2.125     c0.624-0.637,1.312-1.183,2.067-1.639c0.754-0.454,1.566-0.805,2.438-1.053c0.871-0.247,1.761-0.37,2.672-0.37     c2.209,0,3.77,0.774,4.68,2.32c0.91,1.547,1.365,3.764,1.365,6.649V162.173z"/>
			<path fill="#008BBF" d="M107.364,152.462v-1.794h11.23v1.794H107.364z"/>
			<path fill="#008BBF" d="M122.884,151.956c0-1.43,0.248-2.782,0.742-4.057c0.494-1.273,1.189-2.379,2.086-3.314     c0.896-0.937,1.957-1.678,3.178-2.223c1.223-0.546,2.562-0.819,4.018-0.819c1.846,0,3.465,0.416,4.855,1.248     s2.451,1.989,3.18,3.471l-1.912,0.624c-0.598-1.117-1.457-1.995-2.574-2.633c-1.117-0.637-2.34-0.955-3.666-0.955     c-1.117,0-2.158,0.221-3.119,0.663c-0.963,0.442-1.801,1.053-2.516,1.833s-1.273,1.696-1.678,2.749     c-0.402,1.054-0.604,2.191-0.604,3.413c0,1.223,0.215,2.373,0.643,3.451c0.43,1.079,1.002,2.016,1.717,2.808     c0.715,0.794,1.553,1.424,2.516,1.892c0.961,0.469,1.988,0.702,3.08,0.702c0.703,0,1.398-0.104,2.088-0.312     c0.688-0.208,1.324-0.481,1.91-0.819c0.584-0.338,1.092-0.734,1.521-1.189c0.428-0.454,0.721-0.93,0.877-1.424l1.91,0.546     c-0.26,0.702-0.656,1.359-1.189,1.97c-0.533,0.611-1.164,1.138-1.891,1.58c-0.729,0.442-1.527,0.786-2.398,1.033     s-1.775,0.37-2.711,0.37c-1.43,0-2.756-0.279-3.979-0.838c-1.221-0.559-2.281-1.326-3.178-2.301     c-0.896-0.976-1.605-2.1-2.125-3.374C123.144,154.777,122.884,153.412,122.884,151.956z"/>
			<path fill="#008BBF" d="M151.823,162.563c-1.561,0-3.055-0.26-4.484-0.779c-1.432-0.521-2.68-1.3-3.744-2.341l0.975-1.325     c1.092,0.988,2.223,1.716,3.393,2.184s2.457,0.702,3.861,0.702c1.768,0,3.191-0.37,4.27-1.111     c1.08-0.741,1.619-1.774,1.619-3.101c0-0.624-0.137-1.15-0.41-1.58c-0.271-0.429-0.682-0.792-1.229-1.092     c-0.545-0.299-1.221-0.565-2.027-0.799c-0.807-0.234-1.742-0.481-2.809-0.741c-1.143-0.26-2.139-0.521-2.982-0.78     c-0.846-0.26-1.541-0.571-2.086-0.936c-0.547-0.364-0.957-0.806-1.229-1.326c-0.273-0.521-0.41-1.183-0.41-1.989     c0-1.014,0.195-1.897,0.584-2.652c0.391-0.754,0.93-1.378,1.619-1.872c0.689-0.493,1.482-0.864,2.379-1.111     c0.896-0.247,1.854-0.37,2.867-0.37c1.586,0,2.99,0.267,4.211,0.799c1.223,0.534,2.172,1.215,2.848,2.047l-1.092,1.053     c-0.676-0.779-1.555-1.364-2.633-1.755c-1.078-0.39-2.229-0.585-3.451-0.585c-0.754,0-1.463,0.078-2.125,0.234     c-0.664,0.156-1.242,0.403-1.736,0.741s-0.885,0.773-1.17,1.307c-0.287,0.533-0.43,1.163-0.43,1.891     c0,0.599,0.098,1.08,0.293,1.443c0.195,0.364,0.508,0.677,0.936,0.937c0.43,0.26,0.982,0.487,1.658,0.682     c0.676,0.195,1.482,0.41,2.418,0.644c1.273,0.312,2.404,0.611,3.393,0.897s1.814,0.638,2.477,1.053     c0.664,0.416,1.17,0.91,1.521,1.482s0.527,1.3,0.527,2.184c0,1.82-0.709,3.271-2.127,4.349     C156.081,162.024,154.188,162.563,151.823,162.563z"/>
			<path fill="#008BBF" d="M170.581,162.563c-1.559,0-3.055-0.26-4.484-0.779c-1.43-0.521-2.678-1.3-3.744-2.341l0.975-1.325     c1.094,0.988,2.225,1.716,3.395,2.184s2.457,0.702,3.859,0.702c1.77,0,3.191-0.37,4.271-1.111     c1.078-0.741,1.619-1.774,1.619-3.101c0-0.624-0.137-1.15-0.41-1.58c-0.273-0.429-0.682-0.792-1.229-1.092     c-0.547-0.299-1.223-0.565-2.027-0.799c-0.807-0.234-1.742-0.481-2.809-0.741c-1.145-0.26-2.139-0.521-2.984-0.78     c-0.844-0.26-1.539-0.571-2.086-0.936c-0.545-0.364-0.955-0.806-1.229-1.326s-0.41-1.183-0.41-1.989     c0-1.014,0.195-1.897,0.586-2.652c0.391-0.754,0.93-1.378,1.619-1.872c0.688-0.493,1.48-0.864,2.379-1.111     c0.896-0.247,1.852-0.37,2.865-0.37c1.586,0,2.99,0.267,4.213,0.799c1.221,0.534,2.17,1.215,2.848,2.047l-1.094,1.053     c-0.676-0.779-1.553-1.364-2.631-1.755c-1.08-0.39-2.23-0.585-3.453-0.585c-0.754,0-1.461,0.078-2.125,0.234     c-0.662,0.156-1.242,0.403-1.734,0.741c-0.494,0.338-0.885,0.773-1.17,1.307c-0.287,0.533-0.43,1.163-0.43,1.891     c0,0.599,0.098,1.08,0.293,1.443c0.195,0.364,0.506,0.677,0.936,0.937s0.98,0.487,1.658,0.682c0.676,0.195,1.48,0.41,2.418,0.644     c1.273,0.312,2.404,0.611,3.393,0.897s1.812,0.638,2.477,1.053c0.662,0.416,1.17,0.91,1.521,1.482     c0.35,0.572,0.525,1.3,0.525,2.184c0,1.82-0.709,3.271-2.125,4.349C174.839,162.024,172.948,162.563,170.581,162.563z"/>
		</g>
		<path display="none" fill="none" stroke="#41C4F0" stroke-width="3" stroke-miterlimit="10" d="M129.833,90.574    c0,20.711-16.788,37.5-37.5,37.5c-20.71,0-37.499-16.789-37.499-37.5c0-10.191,37.499-81.672,37.499-81.672    S129.833,80.055,129.833,90.574z"/>
		<g>
			<path fill="none" stroke="#00AEEF" stroke-width="0.5" stroke-miterlimit="10" d="M87.959,8.902L87.959,8.902L87.959,8.902     c0,0-8.798,16.771-17.872,35.224c-0.878,1.786-1.758,3.587-2.634,5.391c-8.755,18.036-16.995,36.28-16.995,41.058     c0,10.355,4.197,19.73,10.983,26.517c6.786,6.786,16.161,10.983,26.516,10.983l0,0h0c20.712,0,37.501-16.789,37.501-37.5     C125.46,80.055,87.959,8.902,87.959,8.902z"/>
			<path fill="none" stroke="#00AEEF" stroke-width="0.5" stroke-miterlimit="10" d="M82.205,8.902L82.205,8.902L82.205,8.902     c0,0-8.798,16.771-17.872,35.224c-0.878,1.786-1.758,3.587-2.634,5.391c-8.755,18.036-16.995,36.28-16.995,41.058     c0,10.355,4.197,19.73,10.983,26.517c6.786,6.786,16.161,10.983,26.516,10.983l0,0h0c20.712,0,37.501-16.789,37.501-37.5     C119.706,80.055,82.205,8.902,82.205,8.902z"/>
			<path fill="none" stroke="#00AEEF" stroke-width="0.5" stroke-miterlimit="10" d="M105.22,8.902L105.22,8.902L105.22,8.902     c0,0-8.797,16.771-17.871,35.224c-0.878,1.786-1.758,3.587-2.634,5.391c-8.755,18.036-16.995,36.28-16.995,41.058     c0,10.355,4.197,19.73,10.983,26.517c6.786,6.786,16.161,10.983,26.516,10.983l0,0l0,0c20.713,0,37.502-16.789,37.502-37.5     C142.722,80.055,105.22,8.902,105.22,8.902z"/>
			<path fill="none" stroke="#00AEEF" stroke-width="0.5" stroke-miterlimit="10" d="M99.466,8.902L99.466,8.902L99.466,8.902     c0,0-8.797,16.771-17.871,35.224c-0.878,1.786-1.758,3.587-2.634,5.391c-8.755,18.036-16.995,36.28-16.995,41.058     c0,10.355,4.197,19.73,10.983,26.517c6.786,6.786,16.161,10.983,26.516,10.983l0,0l0,0c20.713,0,37.502-16.789,37.502-37.5     C136.968,80.055,99.466,8.902,99.466,8.902z"/>
			<linearGradient id="SVGID_1_" gradientUnits="userSpaceOnUse" x1="93.7134" y1="8.9019" x2="93.7134" y2="128.0742">
				<stop offset="0" style="stop-color:#00AEEF"/>
				<stop offset="0.4145" style="stop-color:#00ACEC"/>
				<stop offset="0.6001" style="stop-color:#00A9E5"/>
				<stop offset="0.7399" style="stop-color:#00A5DB"/>
				<stop offset="0.8569" style="stop-color:#009ECF"/>
				<stop offset="0.9585" style="stop-color:#0096BF"/>
				<stop offset="1" style="stop-color:#2491B7"/>
			</linearGradient>
			<path fill="url(#SVGID_1_)" d="M93.713,8.902L93.713,8.902L93.713,8.902c0,0-8.798,16.771-17.872,35.224     c-0.878,1.786-1.758,3.587-2.634,5.391c-8.755,18.036-16.995,36.28-16.995,41.058c0,10.355,4.197,19.73,10.983,26.517     c6.786,6.786,16.161,10.983,26.516,10.983l0,0h0c20.712,0,37.501-16.789,37.501-37.5C131.214,80.055,93.713,8.902,93.713,8.902z"/>
		</g>
		<g>
		</g>
		<g>
		</g>
		<g>
		</g>
		<g>
		</g>
		<g>
		</g>
		<g>
		</g>
	</g>
</svg>