<?xml version="1.0" encoding="UTF-8" standalone="no"?>
<svg width="100px" height="100px" viewBox="0 0 100 100" version="1.1" xmlns="http://www.w3.org/2000/svg" xmlns:xlink="http://www.w3.org/1999/xlink">
    <g id="shared" stroke="none" stroke-width="1" fill="none" fill-rule="evenodd">
        <g fill="#27AAE1">
            <rect id="12" x="46" y="4" width="8" height="24"></rect>
            <rect id="11" opacity="0.91" transform="translate(32.464102, 20.124356) rotate(330.000000) translate(-32.464102, -20.124356) " x="28.4641016" y="8.12435565" width="8" height="24"></rect>
            <rect id="10" opacity="0.83" transform="translate(20.124356, 32.464102) rotate(300.000000) translate(-20.124356, -32.464102) " x="16.1243557" y="20.4641016" width="8" height="24"></rect>
            <rect id="9" opacity="0.75" transform="translate(16.000000, 50.000000) rotate(270.000000) translate(-16.000000, -50.000000) " x="12" y="38" width="8" height="24"></rect>
            <rect id="8" opacity="0.66" transform="translate(20.124356, 67.464102) rotate(240.000000) translate(-20.124356, -67.464102) " x="16.1243557" y="55.4641016" width="8" height="24"></rect>
            <rect id="7" opacity="0.58" transform="translate(32.464102, 80.124356) rotate(210.000000) translate(-32.464102, -80.124356) " x="28.4641016" y="68.1243557" width="8" height="24"></rect>
            <rect id="6" opacity="0.5" transform="translate(50.000000, 84.000000) rotate(180.000000) translate(-50.000000, -84.000000) " x="46" y="72" width="8" height="24"></rect>
            <rect id="5" opacity="0.41" transform="translate(67.464102, 80.124356) rotate(150.000000) translate(-67.464102, -80.124356) " x="63.4641016" y="68.1243557" width="8" height="24"></rect>
            <rect id="4" opacity="0.33" transform="translate(80.124356, 67.464102) rotate(120.000000) translate(-80.124356, -67.464102) " x="76.1243557" y="55.4641016" width="8" height="24"></rect>
            <rect id="3" opacity="0.25" transform="translate(84.000000, 50.000000) rotate(90.000000) translate(-84.000000, -50.000000) " x="80" y="38" width="8" height="24"></rect>
            <rect id="2" opacity="0.16" transform="translate(80.124356, 32.464102) rotate(60.000000) translate(-80.124356, -32.464102) " x="76.1243557" y="20.4641016" width="8" height="24"></rect>
            <rect id="1" opacity="0.08" transform="translate(67.464102, 20.124356) rotate(30.000000) translate(-67.464102, -20.124356) " x="63.4641016" y="8.12435565" width="8" height="24"></rect>
        </g>
    </g>
</svg>
